<svg width="20" height="20" viewBox="0 0 20 20" fill="none" xmlns="http://www.w3.org/2000/svg">
<path fill-rule="evenodd" clip-rule="evenodd" d="M11.8626 1.46255C11.3875 -0.487515 8.61246 -0.487515 8.13744 1.46255C8.06652 1.75557 7.92742 2.02772 7.73146 2.25683C7.53549 2.48595 7.2882 2.66556 7.00971 2.78105C6.73122 2.89654 6.4294 2.94465 6.1288 2.92145C5.8282 2.89826 5.53733 2.80443 5.27985 2.64758C3.5648 1.60255 1.60224 3.56511 2.64727 5.28017C3.32229 6.3877 2.72352 7.83274 1.46348 8.139C-0.487828 8.61277 -0.487828 11.3891 1.46348 11.8616C1.75659 11.9326 2.02878 12.0719 2.2579 12.268C2.48701 12.4641 2.66657 12.7115 2.78195 12.9902C2.89733 13.2688 2.94527 13.5708 2.92187 13.8715C2.89846 14.1721 2.80438 14.463 2.64727 14.7205C1.60224 16.4355 3.5648 18.3981 5.27985 17.353C5.53728 17.1959 5.82818 17.1019 6.12886 17.0784C6.42954 17.055 6.73149 17.103 7.01013 17.2184C7.28877 17.3337 7.53623 17.5133 7.73234 17.7424C7.92845 17.9715 8.06768 18.2437 8.13869 18.5368C8.61246 20.4881 11.3888 20.4881 11.8613 18.5368C11.9326 18.2439 12.0719 17.9719 12.2681 17.7429C12.4642 17.514 12.7116 17.3345 12.9902 17.2192C13.2688 17.1038 13.5706 17.0558 13.8712 17.0791C14.1718 17.1024 14.4627 17.1962 14.7201 17.353C16.4352 18.3981 18.3978 16.4355 17.3527 14.7205C17.1959 14.463 17.102 14.1721 17.0788 13.8715C17.0555 13.5709 17.1035 13.2691 17.2189 12.9905C17.3342 12.712 17.5136 12.4645 17.7426 12.2684C17.9716 12.0722 18.2436 11.9329 18.5365 11.8616C20.4878 11.3879 20.4878 8.61152 18.5365 8.139C18.2434 8.068 17.9712 7.92877 17.7421 7.73265C17.513 7.53654 17.3334 7.28909 17.218 7.01044C17.1027 6.7318 17.0547 6.42985 17.0781 6.12917C17.1015 5.8285 17.1956 5.5376 17.3527 5.28017C18.3978 3.56511 16.4352 1.60255 14.7201 2.64758C14.4627 2.80469 14.1718 2.89877 13.8711 2.92218C13.5705 2.94558 13.2685 2.89764 12.9899 2.78226C12.7112 2.66688 12.4638 2.48732 12.2677 2.25821C12.0715 2.0291 11.9323 1.7569 11.8613 1.4638L11.8626 1.46255ZM10 13.7504C10.9946 13.7504 11.9484 13.3553 12.6517 12.652C13.355 11.9488 13.7501 10.9949 13.7501 10.0003C13.7501 9.00572 13.355 8.05186 12.6517 7.34858C11.9484 6.6453 10.9946 6.2502 10 6.2502C9.00541 6.2502 8.05155 6.6453 7.34827 7.34858C6.64498 8.05186 6.24988 9.00572 6.24988 10.0003C6.24988 10.9949 6.64498 11.9488 7.34827 12.652C8.05155 13.3553 9.00541 13.7504 10 13.7504V13.7504Z" fill="#AAB2C8"/>
</svg>
