<svg width="15" height="14" viewBox="0 0 15 14" fill="none" xmlns="http://www.w3.org/2000/svg">
<path d="M11.5 10L14.5 7M14.5 7L11.5 4M14.5 7H4M8.5 10V10.75C8.5 11.3467 8.26295 11.919 7.84099 12.341C7.41903 12.7629 6.84674 13 6.25 13H3.25C2.65326 13 2.08097 12.7629 1.65901 12.341C1.23705 11.919 1 11.3467 1 10.75V3.25C1 2.65326 1.23705 2.08097 1.65901 1.65901C2.08097 1.23705 2.65326 1 3.25 1H6.25C6.84674 1 7.41903 1.23705 7.84099 1.65901C8.26295 2.08097 8.5 2.65326 8.5 3.25V4" stroke="black" stroke-linecap="round" stroke-linejoin="round"/>
</svg>
