<svg width="20" height="19" viewBox="0 0 20 19" fill="none" xmlns="http://www.w3.org/2000/svg">
<path fill-rule="evenodd" clip-rule="evenodd" d="M10 0C9.66848 0 9.35054 0.131696 9.11612 0.366116C8.8817 0.600537 8.75 0.918479 8.75 1.25V2.5C8.75 2.83152 8.8817 3.14946 9.11612 3.38388C9.35054 3.6183 9.66848 3.75 10 3.75C10.3315 3.75 10.6495 3.6183 10.8839 3.38388C11.1183 3.14946 11.25 2.83152 11.25 2.5V1.25C11.25 0.918479 11.1183 0.600537 10.8839 0.366116C10.6495 0.131696 10.3315 0 10 0V0ZM2.5 2.5H6.25C6.25 3.49456 6.64509 4.44839 7.34835 5.15165C8.05161 5.85491 9.00544 6.25 10 6.25C10.9946 6.25 11.9484 5.85491 12.6517 5.15165C13.3549 4.44839 13.75 3.49456 13.75 2.5H17.5C18.163 2.5 18.7989 2.76339 19.2678 3.23223C19.7366 3.70107 20 4.33696 20 5V16.25C20 16.913 19.7366 17.5489 19.2678 18.0178C18.7989 18.4866 18.163 18.75 17.5 18.75H2.5C1.83696 18.75 1.20107 18.4866 0.732233 18.0178C0.263392 17.5489 0 16.913 0 16.25V5C0 4.33696 0.263392 3.70107 0.732233 3.23223C1.20107 2.76339 1.83696 2.5 2.5 2.5V2.5ZM5.625 11.25C6.12228 11.25 6.59919 11.0525 6.95083 10.7008C7.30246 10.3492 7.5 9.87228 7.5 9.375C7.5 8.87772 7.30246 8.40081 6.95083 8.04917C6.59919 7.69754 6.12228 7.5 5.625 7.5C5.12772 7.5 4.65081 7.69754 4.29917 8.04917C3.94754 8.40081 3.75 8.87772 3.75 9.375C3.75 9.87228 3.94754 10.3492 4.29917 10.7008C4.65081 11.0525 5.12772 11.25 5.625 11.25V11.25ZM8.6875 16.25C8.77966 15.7961 8.76979 15.3275 8.6586 14.8779C8.54742 14.4283 8.33769 14.0091 8.0446 13.6505C7.75151 13.2919 7.38239 13.0029 6.96392 12.8045C6.54546 12.6061 6.08813 12.5031 5.625 12.5031C5.16187 12.5031 4.70454 12.6061 4.28608 12.8045C3.86761 13.0029 3.49849 13.2919 3.2054 13.6505C2.91231 14.0091 2.70258 14.4283 2.5914 14.8779C2.48021 15.3275 2.47034 15.7961 2.5625 16.25H8.6875ZM12.5 8.75C12.1685 8.75 11.8505 8.8817 11.6161 9.11612C11.3817 9.35054 11.25 9.66848 11.25 10C11.25 10.3315 11.3817 10.6495 11.6161 10.8839C11.8505 11.1183 12.1685 11.25 12.5 11.25H16.25C16.5815 11.25 16.8995 11.1183 17.1339 10.8839C17.3683 10.6495 17.5 10.3315 17.5 10C17.5 9.66848 17.3683 9.35054 17.1339 9.11612C16.8995 8.8817 16.5815 8.75 16.25 8.75H12.5ZM11.25 13.75C11.25 13.4185 11.3817 13.1005 11.6161 12.8661C11.8505 12.6317 12.1685 12.5 12.5 12.5H15C15.3315 12.5 15.6495 12.6317 15.8839 12.8661C16.1183 13.1005 16.25 13.4185 16.25 13.75C16.25 14.0815 16.1183 14.3995 15.8839 14.6339C15.6495 14.8683 15.3315 15 15 15H12.5C12.1685 15 11.8505 14.8683 11.6161 14.6339C11.3817 14.3995 11.25 14.0815 11.25 13.75Z" fill="white"/>
</svg>
