<svg width="22" height="22" viewBox="0 0 22 22" fill="none" xmlns="http://www.w3.org/2000/svg">
<path d="M4.65236 10.5234L11.0001 0.138672L17.3479 10.5234H4.65236ZM16.8934 21.8627C15.513 21.8627 14.3383 21.3796 13.3691 20.4134C12.3999 19.4473 11.9154 18.2741 11.9154 16.8939C11.9154 15.5136 12.3994 14.3388 13.3674 13.3697C14.3355 12.4005 15.5111 11.9159 16.8941 11.9159C18.2771 11.9159 19.4509 12.3999 20.4154 13.3679C21.3799 14.3361 21.8621 15.5117 21.8621 16.8947C21.8621 18.2777 21.379 19.4514 20.4129 20.4159C19.4467 21.3804 18.2735 21.8627 16.8934 21.8627ZM0.912109 21.3627V12.4159H9.87286V21.3627H0.912109ZM16.8959 19.2127C17.5394 19.2127 18.0863 18.9875 18.5366 18.5372C18.9869 18.0868 19.2121 17.5399 19.2121 16.8964C19.2121 16.2529 18.9869 15.7036 18.5366 15.2484C18.0863 14.7934 17.5394 14.5659 16.8959 14.5659C16.2524 14.5659 15.703 14.7934 15.2479 15.2484C14.7929 15.7036 14.5654 16.2529 14.5654 16.8964C14.5654 17.5399 14.7929 18.0868 15.2479 18.5372C15.703 18.9875 16.2524 19.2127 16.8959 19.2127ZM3.56211 18.7127H7.22286V15.0659H3.56211V18.7127ZM9.37511 7.87342H12.6251L11.0001 5.21817L9.37511 7.87342Z" fill="white"/>
</svg>
