<svg width="23" height="18" viewBox="0 0 23 18" fill="none" xmlns="http://www.w3.org/2000/svg">
<path d="M1.04297 6.78362H21.3998M5.56671 12.079H6.69764M11.2214 12.079H12.3523M4.43577 16.3152H18.007C18.9068 16.3152 19.7698 15.9805 20.4061 15.3846C21.0423 14.7888 21.3998 13.9807 21.3998 13.138V4.66548C21.3998 3.82284 21.0423 3.0147 20.4061 2.41886C19.7698 1.82302 18.9068 1.48828 18.007 1.48828H4.43577C3.53594 1.48828 2.67297 1.82302 2.0367 2.41886C1.40042 3.0147 1.04297 3.82284 1.04297 4.66548V13.138C1.04297 13.9807 1.40042 14.7888 2.0367 15.3846C2.67297 15.9805 3.53594 16.3152 4.43577 16.3152Z" stroke="#AAB2C8" stroke-width="2" stroke-linecap="round" stroke-linejoin="round"/>
</svg>
