<svg width="32" height="37" viewBox="0 0 32 37" fill="none" xmlns="http://www.w3.org/2000/svg">
<path d="M8.923 31.4615C8.13867 31.4615 7.46183 31.1768 6.8925 30.6075C6.32317 30.0382 6.0385 29.3613 6.0385 28.577V2.8845C6.0385 2.10017 6.32317 1.42333 6.8925 0.854001C7.46183 0.284668 8.13867 0 8.923 0H28.6155C29.3995 0 30.0763 0.284668 30.646 0.854001C31.2153 1.42333 31.5 2.10017 31.5 2.8845V28.577C31.5 29.3613 31.2153 30.0382 30.646 30.6075C30.0763 31.1768 29.3995 31.4615 28.6155 31.4615H8.923ZM8.923 29.192H28.6155C28.7692 29.192 28.9102 29.128 29.0385 29C29.1665 28.8717 29.2305 28.7307 29.2305 28.577V2.8845C29.2305 2.73083 29.1665 2.58983 29.0385 2.4615C28.9102 2.3335 28.7692 2.2695 28.6155 2.2695H8.923C8.76933 2.2695 8.62833 2.3335 8.5 2.4615C8.37167 2.58983 8.3075 2.73083 8.3075 2.8845V28.577C8.3075 28.7307 8.37167 28.8717 8.5 29C8.62833 29.128 8.76933 29.192 8.923 29.192ZM3.3845 37C2.6005 37 1.92367 36.7153 1.354 36.146C0.784667 35.5763 0.5 34.8993 0.5 34.115V6.154H2.7695V34.115C2.7695 34.269 2.8335 34.4102 2.9615 34.5385C3.08983 34.6665 3.23083 34.7305 3.3845 34.7305H25.346V37H3.3845Z" fill="#0EC1FC"/>
</svg>
