<svg width="38" height="38" viewBox="0 0 38 38" fill="none" xmlns="http://www.w3.org/2000/svg">
<path d="M19 30C16.1 30 13.609 29.0313 11.527 27.094C9.445 25.157 8.28217 22.7513 8.0385 19.877L10.4575 20.627C10.8362 22.6707 11.8147 24.3655 13.393 25.7115C14.9717 27.0575 16.8407 27.7305 19 27.7305C21.423 27.7305 23.4838 26.8812 25.1825 25.1825C26.8812 23.4838 27.7305 21.423 27.7305 19C27.7305 16.8563 27.0543 14.9883 25.702 13.396C24.3493 11.8037 22.6577 10.8178 20.627 10.4385L19.8885 8.0385C22.7422 8.28217 25.1408 9.445 27.0845 11.527C29.0282 13.609 30 16.1 30 19C30 22.0683 28.9337 24.6687 26.801 26.801C24.6687 28.9337 22.0683 30 19 30ZM19.0035 38C16.3755 38 13.9053 37.5012 11.593 36.5035C9.28067 35.5062 7.26933 34.1525 5.559 32.4425C3.84867 30.7325 2.4945 28.7217 1.4965 26.41C0.498833 24.0983 0 21.6283 0 19C0 18.7513 0.00516654 18.5027 0.0154999 18.254C0.0258332 18.0053 0.0476668 17.7565 0.0810001 17.5075L2.2695 18.177V19C2.2695 23.6563 3.89383 27.6088 7.1425 30.8575C10.3912 34.1062 14.3437 35.7305 19 35.7305C23.6563 35.7305 27.6088 34.1062 30.8575 30.8575C34.1062 27.6088 35.7305 23.6563 35.7305 19C35.7305 14.3437 34.1062 10.3912 30.8575 7.1425C27.6088 3.89383 23.6563 2.2695 19 2.2695H18.177L17.4885 0.0809998C17.7405 0.0476664 17.9923 0.0258332 18.244 0.0154999C18.496 0.00516654 18.748 0 19 0C21.6283 0 24.0983 0.498666 26.41 1.496C28.7217 2.49333 30.7325 3.84683 32.4425 5.5565C34.1525 7.26617 35.5062 9.27667 36.5035 11.588C37.5012 13.8993 38 16.3688 38 18.9965C38 21.6245 37.5013 24.0947 36.504 26.407C35.5067 28.7193 34.1532 30.7307 32.4435 32.441C30.7338 34.1513 28.7233 35.5055 26.412 36.5035C24.1007 37.5012 21.6312 38 19.0035 38ZM16.281 19.2885L7.2115 10.2L5.0385 16.769L0 0L16.769 5.0385L10.2 7.2115L19.2885 16.281L16.281 19.2885Z" fill="#F529E7"/>
</svg>
