<svg width="33" height="30" viewBox="0 0 33 30" fill="none" xmlns="http://www.w3.org/2000/svg">
<path d="M6.76999 30L16.5412 20L26.3124 30H6.76999ZM0.255859 23.3333V3.33333C0.255859 2.41667 0.574781 1.63194 1.21262 0.979167C1.85047 0.326389 2.61723 0 3.51293 0H29.5695C30.4652 0 31.2319 0.326389 31.8698 0.979167C32.5076 1.63194 32.8265 2.41667 32.8265 3.33333V23.3333C32.8265 24.25 32.5076 25.0347 31.8698 25.6875C31.2319 26.3403 30.4652 26.6667 29.5695 26.6667H24.6839V23.3333H29.5695V3.33333H3.51293V23.3333H8.39853V26.6667H3.51293C2.61723 26.6667 1.85047 26.3403 1.21262 25.6875C0.574781 25.0347 0.255859 24.25 0.255859 23.3333Z" fill="#61BF32"/>
</svg>
