<svg width="19" height="18" viewBox="0 0 19 18" fill="none" xmlns="http://www.w3.org/2000/svg">
<path d="M17.8715 6.86531H17.1839V6.82988H9.50024V10.2448H14.3251C13.6212 12.2327 11.7298 13.6598 9.50024 13.6598C6.67139 13.6598 4.37783 11.3662 4.37783 8.53735C4.37783 5.7085 6.67139 3.41494 9.50024 3.41494C10.806 3.41494 11.994 3.90755 12.8985 4.71219L15.3133 2.2974C13.7886 0.876359 11.749 0 9.50024 0C4.78549 0 0.962891 3.8226 0.962891 8.53735C0.962891 13.2521 4.78549 17.0747 9.50024 17.0747C14.215 17.0747 18.0376 13.2521 18.0376 8.53735C18.0376 7.96492 17.9787 7.40615 17.8715 6.86531Z" fill="#FFC107"/>
<path d="M1.94629 4.56364L4.75124 6.62072C5.51021 4.74165 7.3483 3.41494 9.49929 3.41494C10.8051 3.41494 11.993 3.90755 12.8976 4.71219L15.3124 2.2974C13.7876 0.876359 11.748 0 9.49929 0C6.22009 0 3.3763 1.85132 1.94629 4.56364Z" fill="#FF3D00"/>
<path d="M9.50077 17.0754C11.706 17.0754 13.7097 16.2315 15.2246 14.8591L12.5823 12.6232C11.6964 13.2969 10.6138 13.6613 9.50077 13.6604C7.2802 13.6604 5.39473 12.2445 4.68442 10.2686L1.90039 12.4136C3.31332 15.1784 6.18273 17.0754 9.50077 17.0754Z" fill="#4CAF50"/>
<path d="M17.8713 6.86551H17.1836V6.83008H9.5V10.245H14.3249C13.9882 11.1911 13.3817 12.0179 12.5803 12.6231L12.5816 12.6222L15.2239 14.8582C15.0369 15.0281 18.0374 12.8062 18.0374 8.53755C18.0374 7.96512 17.9784 7.40635 17.8713 6.86551Z" fill="#1976D2"/>
</svg>
